<svg xmlns="http://www.w3.org/2000/svg" xmlns:xlink="http://www.w3.org/1999/xlink" width="387" height="327" viewBox="0 0 387 327">
    <defs>
        <path id="a" d="M0 .4h395.728v326.193H0z"/>
    </defs>
    <g fill="none" fill-rule="evenodd">
        <g transform="rotate(15 197.122 147.493)">
            <mask id="b" fill="#fff">
                <use xlink:href="#a"/>
            </mask>
            <path fill="#42A5BF" d="M370.578 120.174l-19.173-13.167C327.77 43.078 266.611.4 198.005.4c-33.61 0-65.902 10.1-93.377 29.215-25.988 18.074-45.96 42.923-57.911 72.004l-27.585 22.235-.162.135C6.914 134.074 0 148.85 0 164.53c0 25.631 18.805 47.396 43.375 51.975 10.446 30.251 30.002 57.31 55.656 76.807 28.647 21.775 62.87 33.281 98.974 33.281 36.069 0 70.264-11.485 98.896-33.22 25.636-19.465 45.198-46.478 55.674-76.684 24.444-4.547 43.153-26.19 43.153-51.702 0-18.14-9.628-35.283-25.15-44.813" mask="url(#b)"/>
        </g>
        <path fill="#FFF" d="M166.084 222.523l-8.08-2.165 3.163-11.806a3.607 3.607 0 0 0-2.555-4.415 3.607 3.607 0 0 0-4.418 2.546l-3.164 11.806-15.055-4.034a3.605 3.605 0 0 0-4.419 2.547 3.607 3.607 0 0 0 2.554 4.413l15.055 4.034-2.927 10.926a3.605 3.605 0 0 0 2.554 4.41 3.605 3.605 0 0 0 4.42-2.541l2.927-10.926 8.08 2.165a3.61 3.61 0 0 0 4.421-2.545 3.608 3.608 0 0 0-2.556-4.415M221.145 104.62l8.077 2.165-3.162 11.803a3.607 3.607 0 0 0 2.554 4.416 3.609 3.609 0 0 0 4.422-2.546l3.163-11.803 15.052 4.033a3.603 3.603 0 0 0 1.865-6.96l-15.053-4.034 2.928-10.927a3.608 3.608 0 0 0-2.557-4.412 3.607 3.607 0 0 0-4.419 2.543l-2.928 10.927-8.077-2.164a3.607 3.607 0 0 0-4.423 2.544 3.608 3.608 0 0 0 2.558 4.416M109.883 248.958l-3.134-3.087-3.704 3.745 3.133 3.087c1.168 1.151 2.765 1.329 3.94.146 1.13-1.149.934-2.741-.235-3.891M231.955 275.968c-3.441 1.176-4.735 4.528-3.545 7.989 1.181 3.432 4.278 5.314 7.72 4.138 3.408-1.163 4.696-4.542 3.512-7.977-1.186-3.46-4.274-5.317-7.687-4.15M211.247 33.767l-4.229 7.964 6.098.863zM155.833 46.684l-5.692-7.01-.122 9.016z"/>
        <path fill="#FFF" d="M327.596 235.423c-.944-.17-1.89-.37-2.831-.622l-42.339-11.344 18-67.173 13.196 3.536 5.721 9.882-1.314 4.905-.002.007-.127.473.014.003c-3.294 13.327 4.719 26.95 18.067 30.527l1.905-7.109c-9.582-2.567-15.293-12.432-12.731-21.991l-.003-.001 2.1-7.836.01-.005-19.446-33.594v-.001a5.882 5.882 0 0 1-.595-4.503 5.889 5.889 0 0 1 2.77-3.6l2.453-1.395 31.662 37.036 1.753 2.05 11.951 13.973c8.007 8.267 11.612 20.398 8.428 32.28-4.57 17.06-21.522 27.566-38.642 24.502zm-285.718-76.74c-16.488-5.963-25.984-23.675-21.375-40.875 2.7-10.077 9.671-17.909 18.462-22.034v.003l22.228-9.838 2.31-1.022 47.744-21.13a5.137 5.137 0 0 1 6.761 2.604 5.111 5.111 0 0 1-2.598 6.75L77.837 89.773l.01.023a3.766 3.766 0 0 0-1.969 2.393 3.8 3.8 0 0 0 2.692 4.65l35.562 9.529 86.697 23.23v.001c2.73.732 4.359 3.54 3.629 6.265-.71 2.653-3.401 4.253-6.066 3.656v-.002l-76.627-20.52c-5.134-1.376-10.428 1.674-11.801 6.797-1.373 5.124 1.66 10.514 6.793 11.89l76.419 20.476v.001c2.73.732 4.358 3.542 3.628 6.265-.73 2.723-3.573 4.449-6.303 3.717l-76.419-20.476c-5.133-1.375-10.427 1.67-11.8 6.794-1.372 5.123 1.69 10.409 6.822 11.784l49.345 13.222v.003a5.122 5.122 0 0 1 3.624 6.265c-.73 2.722-3.54 4.343-6.271 3.611v.003l-59.31-15.892-51.812-13.883a34.382 34.382 0 0 1-2.802-.89zm102.984-80.096c22.627-13.029 48.994-16.479 74.241-9.714 25.25 6.766 46.357 22.936 59.436 45.532 5.746 9.923 9.639 20.564 11.63 31.512l-43.033-11.53-.014-.004-.898-.241-.013.046c-6.792-1.318-13.568 2.816-15.383 9.588a13.176 13.176 0 0 0-.017 6.761c-5.667.227-10.785 4.087-12.325 9.834-1.542 5.754.96 11.655 5.755 14.685a13.175 13.175 0 0 0-3.365 5.862c-1.897 7.08 2.334 14.385 9.428 16.286v-.001l1.763.472a13.2 13.2 0 0 0-2.905 5.366c-1.897 7.08 2.333 14.387 9.43 16.289l29.28 7.845c-7.049 8.107-15.476 15.078-25.068 20.599-22.626 13.03-48.99 16.478-74.24 9.713-25.246-6.765-46.357-22.934-59.438-45.532-5.578-9.634-9.403-19.949-11.443-30.564l56.214 15.063c6.658 1.784 13.52-2.167 15.3-8.81 1.781-6.645-2.186-13.5-8.843-15.285l-49.345-13.222a2.263 2.263 0 0 1-1.6-2.766 2.263 2.263 0 0 1 2.77-1.597l76.418 20.475c6.659 1.784 13.554-2.271 15.333-8.913 1.78-6.644-2.19-13.498-8.85-15.283l-76.418-20.476c-1.205-.323-1.894-1.67-1.572-2.874a2.262 2.262 0 0 1 2.77-1.595l76.424 20.463-.004.014c6.66 1.784 13.524-2.17 15.304-8.812 1.78-6.645-2.191-13.5-8.85-15.284l-83.696-22.426c7.195-8.487 15.89-15.756 25.824-21.476zm92.322 92.939l-.01-.003-7.357-1.971c-3.169-.85-5.057-4.11-4.21-7.272.847-3.16 4.112-5.038 7.281-4.19l7.36 1.973.007.002 48.068 12.88-3.07 11.46-48.069-12.88zm8.288 22.125h-.003l-13.26-3.554c-3.167-.848-5.055-4.11-4.208-7.27.847-3.161 4.112-5.042 7.279-4.193l48.068 12.88-3.072 11.463-34.804-9.326zm-9.186 11.299c.847-3.16 4.113-5.041 7.282-4.192v-.001l34.804 9.325-1.179 4.4-1.893 7.065-2.413-.646-32.391-8.68c-3.169-.848-5.056-4.112-4.21-7.271zm57.013-50.576l-1.623 6.059-1.448 5.403-48.068-12.88c-3.166-.848-5.054-4.11-4.207-7.27.847-3.16 4.112-5.04 7.278-4.192l46.032 12.335 2.036.545zm69.943 19.29l-.023-.023-17.719-20.725C341.162 90.021 297.522 33.95 233.087 16.685 170.725-.025 107.055 24.49 71.107 73.499l-35.14 15.55c-10.753 4.994-19.291 14.543-22.59 26.85-5.83 21.759 6.912 44.192 28.47 50.504 1.447 65.714 45.904 125.368 112.733 143.274 66.767 17.89 135.027-11.472 169.166-67.553 21.697 5.308 43.821-7.669 49.616-29.295 3.859-14.402-.47-29.1-10.12-39.165z"/>
    </g>
</svg>
