<svg xmlns="http://www.w3.org/2000/svg" viewBox="0 0 450 430"><defs><style>.cls-1{isolation:isolate;}.cls-2,.cls-26{fill:#fff;}.cls-3{fill:#cde0fe;}.cls-4{fill:#e0ecff;}.cls-5{fill:#ecc19c;}.cls-6{fill:#4d4d4d;}.cls-7{fill:gray;}.cls-8{fill:#9e9e9e;}.cls-9{fill:#616161;opacity:0.2;}.cls-10{fill:#8a9196;}.cls-11{fill:#0e4779;}.cls-12,.cls-21{fill:#125ea1;}.cls-12,.cls-14{opacity:0.5;}.cls-13{fill:#d39b75;}.cls-14,.cls-20{fill:#3580b7;}.cls-15{fill:#bdbdbd;}.cls-16,.cls-17{fill:#757575;}.cls-17{opacity:0.3;}.cls-18{fill:#fdcdd3;}.cls-19{fill:#1a1a1a;}.cls-22{fill:#303030;}.cls-23,.cls-24,.cls-25,.cls-26,.cls-27{fill-rule:evenodd;}.cls-24{fill:#f88d88;}.cls-25{fill:#cf998c;mix-blend-mode:multiply;}.cls-27{fill:#ce8d61;}</style></defs><title>rideshare_man_car</title><g class="cls-1"><g id="Layer_1" data-name="Layer 1"><path class="cls-2" d="M325.25,33.81a6.52,6.52,0,0,0,.43.77,2.62,2.62,0,0,0,1.57,1.29,2.09,2.09,0,0,0,1.7-.3,5.12,5.12,0,0,0,2.15-3.85,15.15,15.15,0,0,0-.48-6.1,21.91,21.91,0,0,0-2.72-6.3,12.62,12.62,0,0,0-5.1-4.7,12,12,0,0,0-6.8-1.06,17.7,17.7,0,0,0-7.23,2.9,27.78,27.78,0,0,0-9.07,9.07,21.13,21.13,0,0,0-3.34,11.34A23,23,0,0,0,300.22,49a17.91,17.91,0,0,0,5.55,5.58,13.62,13.62,0,0,0,7.53,2.08,16.87,16.87,0,0,0,8.75-2.95,23.86,23.86,0,0,0,5.24-4.26,27.06,27.06,0,0,0,3.33-5,2.55,2.55,0,0,1,.68-.84,1.8,1.8,0,0,1,2.11.27,1.54,1.54,0,0,1,.48.47c.43.66.25,1.68-.52,3a41.52,41.52,0,0,1-3.77,5.44,22.68,22.68,0,0,1-5.28,4.54,21.42,21.42,0,0,1-11.18,3.76,16.92,16.92,0,0,1-9.54-2.61,22.54,22.54,0,0,1-7-7.12A27,27,0,0,1,292,37.21a25.69,25.69,0,0,1,3.7-13.61,32.36,32.36,0,0,1,10.63-10.7,21.53,21.53,0,0,1,9.84-3.56A15.57,15.57,0,0,1,325,11a17,17,0,0,1,6.46,6.07,22.5,22.5,0,0,1,3.19,8.39,17.31,17.31,0,0,1-.56,8.6,11.75,11.75,0,0,1-5,6.37,6.61,6.61,0,0,1-4,1.07,5.26,5.26,0,0,1-3.56-1.5,8.54,8.54,0,0,1-4.38,8,7.73,7.73,0,0,1-3.88,1.2,8.12,8.12,0,0,1-4.22-1,9.58,9.58,0,0,1-3.49-3.35,16.3,16.3,0,0,1-2.26-6.94,17.3,17.3,0,0,1,.81-7.85,9.92,9.92,0,0,1,4.08-5.51,6,6,0,0,1,3.36-.95,6.45,6.45,0,0,1,3.38,1.16l-.61-1.34a2.69,2.69,0,0,1,0-1.77,2.89,2.89,0,0,1,1.4-1.65c1.63-1.05,2.88-.93,3.72.38.18.32.32.57.41.77Zm-8.48-4.06a3.93,3.93,0,0,0-2.72-2.07,4.83,4.83,0,0,0-3.13.84,5.1,5.1,0,0,0-2.27,3.4,11.56,11.56,0,0,0,0,4.9,13.83,13.83,0,0,0,1.84,4.54A4.58,4.58,0,0,0,313,43.47a3.47,3.47,0,0,0,2.86-.57,5.23,5.23,0,0,0,2.09-2.59,9.35,9.35,0,0,0,.88-3.44,10.49,10.49,0,0,0-.39-3.06A13.82,13.82,0,0,0,316.77,29.75Z"/><path class="cls-3" d="M129.46,16.56c-15.05-.39-28,11.9-28.76,26.83-.24,4.52-7.25,4-7-.53C94.69,24,111.2,9.07,130,9.55c4.52.12,4,7.13-.53,7Z"/><path class="cls-3" d="M131.57,30.82A17.57,17.57,0,0,0,114,47.36c-.24,4.52-7.25,4-7-.53.69-13.09,12.17-23.35,25.16-23,4.53.12,4,7.13-.53,7Z"/><path class="cls-3" d="M133.66,43a7.08,7.08,0,0,0-7,6.72c-.24,4.52-7.25,4-7-.53A14.22,14.22,0,0,1,134.19,36c4.52.12,4,7.13-.53,7Z"/><path class="cls-3" d="M138.25,51.78c-.34,4.51-7.35,4-7-.53s7.35-4,7,.53Z"/><g id="Group_2404" data-name="Group 2404"><path id="Path_10251" data-name="Path 10251" class="cls-3" d="M268.43,49.68c14,6.22,34.15,27.92,44.41,39.11q27.8,30.1,55.6,60.28c9.21,9.94,19.67,15.76,30.56,21.86,6.5,3.49,41.52,57.08,47.23,136.91.12,25.39-.3,67.9-95.37,64.5S211.05,405.09,181,416.43c-27.6,10.48-60.47,12.6-86.68,4.52C55.9,409.17,28.79,375.22,11.51,339c-23.7-49.5,3.58-121.31,52.52-154.34,25.06-16.89,47.67-37.84,57.22-72.35C136,59.32,207.87,22.78,268.43,49.68Z"/><path id="Path_10252" data-name="Path 10252" class="cls-4" d="M337.35,171.32c-35.21-50.25-70.08-109.76-130.2-83.19-35.54,15.74-41.57,50.34-52.43,72.39C131.52,211.08,91.08,262.38,120,315.05c32.14,63.31,91,24.25,144.07,34.87,33.37,9.37,150.85.3,165.67-44.43,2.21-21.65,1.55-38.1-11.11-57-4.63-10.55-3.82-19.26-4-28.72-6.85-6,.48-1-6.74-6.19l-6-4.6a11.78,11.78,0,0,0-1.25-.83C374.77,212.92,353.72,195.65,337.35,171.32Z"/></g><path class="cls-3" d="M432.1,106.81a15.21,15.21,0,1,0,7.87,20v0a15.18,15.18,0,0,0-7.85-20Zm-3.79,22.95a7.13,7.13,0,0,1-4.11.34l-.63,1.51a1.49,1.49,0,0,1-.9.9,1.63,1.63,0,0,1-1.28,0,1.5,1.5,0,0,1-.88-.88,1.52,1.52,0,0,1,.05-1.27l.6-1.41a9.94,9.94,0,0,1-2.3-1.72,9.05,9.05,0,0,1-1.58-2.3,1.94,1.94,0,0,1-.09-1.63,1.52,1.52,0,0,1,2.78-.14,8.12,8.12,0,0,0,1,1.62,5.45,5.45,0,0,0,1.33,1.16l2.12-4.89q-4.6-3-2.83-7.24a5,5,0,0,1,2.84-2.84,6.83,6.83,0,0,1,4.33-.07l.37-.85a1.52,1.52,0,0,1,.9-.89,1.63,1.63,0,0,1,1.28,0,1.52,1.52,0,0,1,.88.89,1.64,1.64,0,0,1,0,1.25l-.41.94a8,8,0,0,1,2.84,3.09,1.86,1.86,0,0,1,.14,1.64,1.57,1.57,0,0,1-.85.85,1.54,1.54,0,0,1-1.19,0,1.39,1.39,0,0,1-.55-.55,6.72,6.72,0,0,0-1.57-1.83l-2,4.65a7.87,7.87,0,0,1,2.8,3.2,5.49,5.49,0,0,1-3,6.44Zm-1.15-6.6-1.75,3.89a3.84,3.84,0,0,0,1.53-.28,1.72,1.72,0,0,0,.88-.88,2,2,0,0,0,.13-1.39A3.27,3.27,0,0,0,427.16,123.16Zm-2.53-8.11a1.93,1.93,0,0,0-.08,1.56,4.13,4.13,0,0,0,1.21,1.51l1.81-4.18a3.26,3.26,0,0,0-1.88.07,1.82,1.82,0,0,0-1,1Z"/><path class="cls-2" d="M164.29,324.45a.71.71,0,0,1-.15-.15,1.35,1.35,0,0,1,.14-1.9l28.57-24.52L159.34,280.8a1.35,1.35,0,1,1,1.23-2.4l35.3,18a1.39,1.39,0,0,1,.73,1,1.35,1.35,0,0,1-.47,1.19L166,324.45A1.36,1.36,0,0,1,164.29,324.45Z"/><path class="cls-2" d="M187.36,298.77a8,8,0,1,1,9.07,6.72A8,8,0,0,1,187.36,298.77Z"/><path class="cls-2" d="M157.21,324.6a8,8,0,1,1,9.07,6.72A8,8,0,0,1,157.21,324.6Z"/><path class="cls-2" d="M151.25,280.89a8,8,0,1,1,9.07,6.72A8,8,0,0,1,151.25,280.89Z"/><circle class="cls-3" cx="42.18" cy="141.64" r="30.99"/><path class="cls-2" d="M26,159.06a15.2,15.2,0,0,1,1.89-10.72c2.19-3.43,6.2-3.66,8.6-3.79.42,0,.93-.05,1.24-.1,0-.62-.09-1.52-.16-2.42-3.46-2.28-5.67-6.83-5.67-11.74,0-7.37,3.63-11.77,9.69-11.77s9.69,4.42,9.69,11.82A13.92,13.92,0,0,1,45.61,142c-.07.91-.14,1.82-.17,2.44.32.05.82.07,1.25.1,2.4.13,6.41.36,8.6,3.79a15.26,15.26,0,0,1,1.89,10.72.91.91,0,0,1-.87.69H26.86A.89.89,0,0,1,26,159.06Z"/><path class="cls-3" d="M164,28.57l10.58,4.92a2.05,2.05,0,0,0,2.92-1.87v-.05a2.06,2.06,0,0,0-1.19-1.87l-6.62-3.07,6.62-3.08a2,2,0,0,0,1.19-1.86v-.06a2,2,0,0,0-2.05-2.05,2,2,0,0,0-.87.19L164,24.69a2.06,2.06,0,0,0-1.19,1.87v.14A2.06,2.06,0,0,0,164,28.57Z"/><path class="cls-3" d="M177.62,38.59a2.07,2.07,0,0,0,1.66.85h.05a2.05,2.05,0,0,0,2-1.43l7-21.61a2,2,0,0,0-1.95-2.68h-.06a2,2,0,0,0-2,1.43l-7,21.6A2,2,0,0,0,177.62,38.59Z"/><path class="cls-3" d="M188.06,21.69a2.06,2.06,0,0,0,1.19,1.86l6.62,3.08-6.62,3.07a2.08,2.08,0,0,0-1.19,1.87v.05a2,2,0,0,0,2.06,2.06,2,2,0,0,0,.87-.19l10.58-4.92a2.08,2.08,0,0,0,1.19-1.87v-.15a2.07,2.07,0,0,0-1.19-1.86L191,19.77a2,2,0,0,0-.87-.19,2,2,0,0,0-2.06,2.05v.06Z"/><path class="cls-2" d="M184.67,172.85A8.34,8.34,0,1,0,180.79,184,8.36,8.36,0,0,0,184.67,172.85Z"/><path class="cls-2" d="M221.71,185.76a5.53,5.53,0,1,0-2.56,7.39h0a5.52,5.52,0,0,0,2.56-7.36Z"/><path class="cls-2" d="M248.38,159a3.7,3.7,0,1,0-1.69,4.95,3.7,3.7,0,0,0,1.69-4.95Z"/><path class="cls-3" d="M53.39,62.06l-6.71.71L46,56a3.61,3.61,0,1,0-7.18.75h0l.69,6.73-6.72.69a3.59,3.59,0,1,0,.71,7.14l6.71-.69.71,6.73a3.61,3.61,0,0,0,7.19-.74L47.37,70l6.71-.69a3.62,3.62,0,0,0-.75-7.2Z"/><path class="cls-2" d="M223.12,129.12l-6.71.71-.71-6.74a3.61,3.61,0,0,0-7.19.75h0l.69,6.73-6.71.69a3.59,3.59,0,1,0,.71,7.15l6.71-.69.71,6.73a3.61,3.61,0,1,0,7.18-.75l-.7-6.69,6.71-.69a3.62,3.62,0,0,0-.75-7.2Z"/><path class="cls-3" d="M393.22,43.83c-23.13,0-41.9,11.65-41.9,26,0,8.11,5.95,15.33,15.27,20.11,1.66.9-3.19,5.93-3.19,5.93s11.38-2.63,12.92-2.19a64.73,64.73,0,0,0,17,2.19c23.13,0,41.9-11.65,41.9-26S416.35,43.83,393.22,43.83Z"/><path class="cls-2" d="M377.67,66.8h0a3.57,3.57,0,1,0,3.59,3.55A3.56,3.56,0,0,0,377.65,66.8Z"/><path class="cls-2" d="M393.77,66.8h0a3.57,3.57,0,1,0,3.58,3.55A3.57,3.57,0,0,0,393.76,66.8Z"/><circle class="cls-2" cx="409.88" cy="70.35" r="3.55"/><path class="cls-5" d="M132.62,197.48a126.31,126.31,0,0,1-23.14-7.72c-10.78-5-45.3-15.44-51.18-3.26,4.76,11.1,10.76,26.06,10.76,26.06l4,3.1c25.21.6,39.49,1.2,53.85,6.79Z"/><path class="cls-6" d="M387.72,133.43l-47.11,17c-6.35,2.3-10.62,7.84-10.83,14.07-.37,10.51-1.66,21,5.66,33.91,2.74,4.84,6.25,9,10.26,9.21,9.76.51,37.07,1.64,49-4.08s18.26-7.09,16.51-24.67-1.77-34.12-6.23-39.74S396.49,130.26,387.72,133.43Z"/><path class="cls-7" d="M405,139.15c4.46,5.62,4.49,22.16,6.23,39.74,1.14,11.39-1.12,16-6.09,19.35-9.92,3.69-13.73-5.68-14.59-11.57-4.85-33.12-11.07-46.58-2.82-53.24C396.49,130.26,400.52,133.52,405,139.15Z"/><path class="cls-7" d="M416.23,207.53s-3.74-8.17,10.55-2.57,20.34,9.37,20.62,14.7-.54,20.64-12.86,49.53S401.18,357,390.43,371.3s-70.18,11.31-80.14,6.07C345.92,328.53,416.23,207.53,416.23,207.53Z"/><polygon class="cls-8" points="395.92 218.26 402.51 217.92 401.53 199.06 395.07 201.93 395.92 218.26"/><path class="cls-6" d="M375,212s32.4-9.91,43-8.76-33.07,67.56-49.62,102.35-20.9,60.82-28.84,65.31-25.71,9.14-36.44,4.95S375,212,375,212Z"/><path class="cls-9" d="M385.42,256.93c-1.81,4.35-53.82,106.7-78.65,120a22.11,22.11,0,0,1-3.68-1.05c-8.87-3.47,46.23-113.47,65.47-151.26l12.61-11.86C385.83,212.63,398.22,226.29,385.42,256.93Z"/><polygon class="cls-10" points="343.64 191.97 298.26 192.6 300.51 202.33 343.64 191.97"/><path class="cls-11" d="M293.66,197.69s-11.36,3.87-26.28,15.57-49.87,15.05-68,9.12-67.06-26.79-67.06-26.79l-10.61,26s53.43,33.87,66.64,38.27,65.6,3.71,65.6,3.71c-25.31,49.37-37.27,83.52-36.39,83.09,6.82.53,36.81,9.29,52.87,18.37,51.9,29.36,44.88-4.18,68.57-42,11.05-17.63,28.11-46.83,41.15-62.87s-9.92-61.69-33.17-60.48S293.66,197.69,293.66,197.69Z"/><path class="cls-12" d="M251.44,268.53c20.8-17.74,124.4-3.75,124.4-3.75s0,.36,0,1c-3.87,5.22-8,11.27-12.09,17.6-15.19,12-41.17,36-84.82,26.63-28.1-6-30.93-6-31.06-34.27Q249.58,272.21,251.44,268.53Z"/><path class="cls-13" d="M348.9,149.54c-4.58,16.19-1.27,14.42-4.63,25.45a57.49,57.49,0,0,0-1.76,22.15l-31,17.06L298,199.71l9-23.24c-6.88.17-9.47-13-9.83-19.88,0-.62-10.91-13-10.89-12.53-1-19.34,12.42-34.75,22.8-34.26L335,111C345,111.5,354.28,121.83,348.9,149.54Z"/><polygon class="cls-14" points="343.64 191.97 346.99 199.69 302.09 222.76 300.51 202.33 343.64 191.97"/><polygon class="cls-14" points="300.51 202.33 294.86 218.72 293.66 197.69 298.26 192.6 300.51 202.33"/><polygon class="cls-2" points="343.64 191.97 346.99 199.69 303.62 218.27 300.51 202.33 343.64 191.97"/><polygon class="cls-2" points="300.51 202.33 293.48 216.23 293.66 197.69 298.26 192.6 300.51 202.33"/><path class="cls-15" d="M126.07,295.43c-1.06,21.88-11.55-1.26-19.45-21.64l-5.82,4c9,23.24,5.47,15.89,15.28,32.26l8.33,6.69s7.69,1.13,7.44-.38S126.07,295.43,126.07,295.43Z"/><polygon points="49.27 241.41 75.03 297.72 53.34 306.34 28.22 249.1 49.27 241.41"/><polygon class="cls-16" points="75.03 297.72 119.79 277.43 95.52 221.94 49.27 241.41 75.03 297.72"/><polygon class="cls-15" points="99.72 228.32 28.22 249.1 93.37 214.8 99.72 228.32"/><path class="cls-17" d="M286.86,200.7a57.75,57.75,0,0,1,6.8-3c-3.89,16-13.9,65.27-9.71,96.83,3.35,25.21,16.41,66.92,21,81.17-4.59.56-10-.37-15.45-2.1-4.72-18.77-12.11-62.85-13.28-85C274.17,249.48,282.6,210.37,286.86,200.7Z"/><path class="cls-18" d="M345,160.8c7.31,1.62,11.39-16.52,4-18.15S337.68,159.17,345,160.8Z"/><polygon class="cls-16" points="80.42 226.43 95.52 221.94 73.91 181.91 64.39 178.34 64.63 182.87 80.42 226.43"/><path class="cls-18" d="M343.62,164.7c4.56,1,7.11-10.33,2.52-11.35S339,163.68,343.62,164.7Z"/><path class="cls-19" d="M113.12,213.93c11.37,26.2,50.45,111.62,22,109.28-9.45-.78-14.86-6.87-18.64-11-2.68-2.93-10.73-18.36-14.91-26.54,1-.53,1.85-.83,2.44-1.1,3.52,7.58,10.43,21.9,13.89,25.53,4.84,5.1,10.82,7.33,9.64-.5S89,212.81,81.53,201.75C62.21,173,59.8,169.51,80.42,226.43l-2.07,1c-9.6-10.05-20.59-43.37-15.31-52.9,2.33-4.2,8.64-10.12,17.31-6.5S107.29,200.52,113.12,213.93Z"/><path class="cls-5" d="M143.56,206c-6.73-2.2-9.53-2-18.6-10.23s-18.52-23.22-35.71-21.05-21.45,6.4-21.49,12.17,2.17,5.85,2.17,5.85-2.78,5.38,3.48,8.11c-1.92,2.3.12,9,4.39,9.44,1.94,4.65,6.72,11.7,10.47,12s1.37-2.95.65-7-1.53-6.54,5.4-3.84,8.9,8,20.26,11.16,24.93,12.62,24.93,12.62Z"/><path d="M276.24,288.59c1.3,24.68,14.13,73.42,18.39,86.86,5.7.52,10.83,1.12,15.46,1.76l.2.15S288,325.25,284,294.52c-4.19-31.56,5.82-80.86,9.71-96.83-1.22-.67-5-1.11-6.8,3C282.6,210.37,274.17,249.48,276.24,288.59Z"/><path class="cls-20" d="M347,199.68c38.76-2.44,59.61,40,25.17,68.38-46.36,15.64-47.86,21.38-68.87,21.2s-48.93,17.17-102.21-15.35-72.51-43.4-72.51-43.4l12.18-29.71S214.34,240.69,266.53,241s48.08-13.92,56-23.74C328.25,210.1,337.66,204.39,347,199.68Z"/><path class="cls-2" d="M310.09,377.21l.2.15s0-.06-.05-.13Z"/><path class="cls-13" d="M65.7,192.89c.58,4.72-.13,7.3,1.93,7.87s4.06,5.44,1.12,5.82c1.74,1.16,3.62.49,3.74,2.64s-.44,2.51-2.14,2.37c2.32,1.24,3.42.62,3.62,2.19S72.89,217,68.71,215s-5.92-3-5.67-4.68,1.28-1.54,1.28-1.54c-5.06-2.75-5.13-5.5-4.47-5.43-3.53-2.56-1.15-7.55.41-7.37,0,0-3.66-1.51-2.74-5.06s-.11-5.62,2.74-4.58S65.7,192.89,65.7,192.89Z"/><path class="cls-13" d="M69.93,192.69c-1.83-.07-6.25-10.55,5.89-15.1-2.37,13.65,10.84,22.64,18.11,33.68-6.5-2.44-5.71,0-5,4s3.1,7.31-.65,7-8.53-7.36-10.47-12c-4.27-.45-6.31-7.14-4.39-9.44C67.15,198.07,69.93,192.69,69.93,192.69Z"/><path class="cls-21" d="M130.69,225.35c42,18.4,77,48.93,108.05,54.82,23.17,4.4,51.68-6.66,69.68-8.85s70.89-4.81,81.11-33.48c-.61,9.79-5.5,20.43-17.37,30.22-46.36,15.64-47.86,21.38-68.87,21.2s-48.93,17.17-102.21-15.35-72.51-43.4-72.51-43.4Z"/><path class="cls-9" d="M117.93,310.1c4.84,5.1,10.82,7.33,9.64-.5a32,32,0,0,0-1.39-4.67c9.47,12.5,15.48,4.4,18.54-2.86,2.13,15.54-1.91,21.77-9.57,21.14-17.31-1.43-25.23-21.24-33.55-37.54,1-.53,1.85-.83,2.44-1.1C107.56,292.15,114.47,306.47,117.93,310.1Z"/><ellipse class="cls-5" cx="318.9" cy="138.64" rx="36.06" ry="51.21"/><path class="cls-22" d="M284.73,155s-8.25-30.72,9.41-46.1c0,0,13.17,10.6,29.19,6.87A40.28,40.28,0,0,0,335,110.66s12.51-5.31,16.62,7c4.38,13,2.15,26.33,2.42,34.27,0,0,5.85-13.23,6-33.36a51,51,0,0,1,1.32,8s2.2-15.36-1.79-24.4a25.9,25.9,0,0,0-14.09-14.66s-6.61-10.55-33-8.44c0,0-.43-1.8,3.65-3.46,0,0-20.33-1.29-24.93,12.52,0,0-16.45,3.61-14.92,32.23l1.74-5.35S274.89,141.86,284.73,155Z"/><path class="cls-22" d="M339.54,161.61c-3.29-3.7-17.74-4.05-17.74-4.05h-.44l0,4.78,5-.15c6.54-.25,9.39,1.07,10.74,3.11a5.65,5.65,0,0,1,.89,3.1c.06,6-4.05,11-4.05,11-2.47,3.15-5.07,3.68-6.72,3.65a4.83,4.83,0,0,1-2.07-.51,14.73,14.73,0,0,1-4.88-3.72,14.39,14.39,0,0,1-4.85,3.72,5,5,0,0,1-2.07.5c-1.65,0-4.25-.5-6.72-3.66,0,0-4.11-4.95-4.05-11a5.79,5.79,0,0,1,.89-3.14c1.36-2,4.2-3.4,10.75-3.16l4.95.26,0-4.78h-.43s-14.46.35-17.74,4.05c0,0-3.41,2.83-1.5,10.95,0,0,2,7.12,3.26,10.79a9.31,9.31,0,0,0,1.21,2.37,16.74,16.74,0,0,0,7,5,25.69,25.69,0,0,0,9.35,1.8,24.48,24.48,0,0,0,9.36-1.8,14.82,14.82,0,0,0,7-5,9.33,9.33,0,0,0,1.21-2.4c1.23-3.66,3.26-10.73,3.26-10.73C342.94,164.44,339.54,161.61,339.54,161.61Z"/><path class="cls-23" d="M304.2,149.53c1.46-.14,2.42-3,2.14-6.37s-1.69-6-3.15-5.88-2.43,3-2.15,6.38S302.73,149.67,304.2,149.53Z"/><path class="cls-23" d="M335.33,149.69c1.47.05,2.78-2.67,2.93-6.05s-.93-6.18-2.39-6.23-2.79,2.68-2.93,6.06S333.87,149.65,335.33,149.69Z"/><path class="cls-24" d="M336.43,165.89c-9-.57-24.58-.56-32.63-.08C310.73,182.91,329,183.38,336.43,165.89Z"/><path class="cls-25" d="M335.84,166c-9,1.93-22.36,1.88-31.66,0C311.38,179.39,328,180.07,335.84,166Z"/><path class="cls-26" d="M334.76,166.23a90,90,0,0,1-29.66,0C309.59,171.89,329.73,171.84,334.76,166.23Z"/><path class="cls-23" d="M331.2,128c2.9-.1,7.7-.5,11.75,4.2,1.82,2.12,1.24,2.89-.85.84-3.55-3.48-6.5-3-11.05-3C329.29,130.14,329.23,128.11,331.2,128Z"/><path class="cls-23" d="M305.61,128.57c-2.9.08-7.7,0-11.55,4.93-1.74,2.23-1.13,3,.87.79,3.41-3.71,6.37-3.43,10.91-3.65C307.59,130.55,307.58,128.52,305.61,128.57Z"/><path class="cls-27" d="M323.86,156.39c-8.73,1-11.76-4.57-11.41-9C309.51,155.3,315,160.22,323.86,156.39Z"/><path d="M217.44,346.67c-32.88,3.79-116.77,29.55-130.28,42.56q4.95,15.81,9.58,32.41c25.79,7.22,57.47,4.94,84.21-5.21,24.87-9.37,59.77-35.65,124.74-42.59C275,351.26,236.51,343.93,217.44,346.67Z"/><path d="M11.51,339c15.17,31.8,37.94,61.85,69.25,76.68-.44-6.4,1.11-13.88,4.81-22.34-.66-1.15-.06-2.54,1.59-4.13A1175.53,1175.53,0,0,0,23.29,228.59C2.56,263.29-4.26,306.08,11.51,339Z"/><path d="M85.57,393.36c-3.7,8.46-5.25,15.94-4.81,22.34A100.54,100.54,0,0,0,94.27,421c.81.25,1.64.46,2.47.69q-4.62-16.58-9.58-32.41C85.51,390.82,84.91,392.21,85.57,393.36Z"/></g></g></svg>